# File created by Blade
# Date/Time:  Tue Apr 07 20:45:22 2015
# Frame Rate: 120.000 fps
#------------------------------------------------------
:FULLY-SPECIFIED
:DEGREES
803
root 4.095975 34.303701 -4.207192 16.132894 -26.163354 -43.219674
Spine 14.348938 18.672658 36.315890
Head -0.799354 4.460715 -0.300357
LeftShoulder -20.761094 32.146405 30.378162
LeftArm 49.739382 -76.667277 -55.988141
LeftForeArm 10.304481 0.000000 6.128628
LeftHand 10.565495 0.000000 14.784265
LeftHandThumb1 -26.253704 0.000000 33.147579
RightShoulder 8.494243 25.028825 -26.255315
RightArm 29.510816 55.636582 73.613581
RightForeArm 68.551180 -0.000000 23.928101
RightHand 11.923743 -0.000000 -18.266597
RightHandThumb1 -24.326973 -0.000000 -32.862282
LeftUpLeg -3.306658 -3.962979 31.986293
LeftLeg 22.799274 -0.000000 -0.000000
LeftFoot -10.948562 25.940977 -12.004571
LeftToeBase -21.487450 -0.000000 0.000000
RightUpLeg -95.775760 -51.223577 -7.083346
RightLeg 9.666349 -0.000000 -0.000000
RightFoot 41.612602 -14.682565 -2.135873
RightToeBase 20.598499 -0.000000 -0.000000
804
root 4.153275 34.312479 -4.190353 16.363688 -26.262308 -42.970937
Spine 14.152925 18.957546 36.121571
Head -0.792656 4.285264 -0.429961
LeftShoulder -20.656520 32.238823 30.420280
LeftArm 50.361247 -76.118218 -56.601613
LeftForeArm 10.274870 -0.000000 5.882283
LeftHand 10.601272 -0.000000 14.179401
LeftHandThumb1 -26.253704 0.000000 33.147579
RightShoulder 8.725999 25.078482 -25.979056
RightArm 29.813707 55.107579 74.484744
RightForeArm 67.402325 -0.000000 24.001549
RightHand 11.509983 -0.000000 -17.824906
RightHandThumb1 -24.326973 -0.000000 -32.862282
LeftUpLeg -3.502609 -4.047361 31.625326
LeftLeg 22.578116 -0.000000 -0.000000
LeftFoot -10.644512 26.175221 -11.803539
LeftToeBase -21.537251 -0.000000 0.000000
RightUpLeg -94.409427 -51.040676 -7.873299
RightLeg 10.028481 -0.000000 -0.000000
RightFoot 41.681425 -14.832466 -2.108960
RightToeBase 20.718929 -0.000000 -0.000000
805
root 4.207947 34.318980 -4.175839 16.622238 -26.327192 -42.688715
Spine 13.892128 19.312066 35.889321
Head -0.794076 4.062945 -0.521483
LeftShoulder -20.442756 32.306809 30.492603
LeftArm 49.974265 -75.467097 -56.119926
LeftForeArm 9.931155 -0.000000 5.601329
LeftHand 10.500110 -0.000000 13.798581
LeftHandThumb1 -26.253704 0.000000 33.147579
RightShoulder 8.939821 24.996311 -25.756592
RightArm 30.152793 54.735438 75.412280
RightForeArm 66.211326 -0.000000 24.307330
RightHand 11.425391 -0.000000 -18.003033
RightHandThumb1 -24.326973 -0.000000 -32.862282
LeftUpLeg -3.780165 -4.138644 31.260278
LeftLeg 22.388876 -0.000000 -0.000000
LeftFoot -10.320708 26.395169 -11.589125
LeftToeBase -21.701406 -0.000000 0.000000
RightUpLeg -93.068678 -50.878389 -8.696179
RightLeg 10.407905 -0.000000 -0.000000
RightFoot 41.740909 -15.047206 -2.145245
RightToeBase 20.608810 -0.000000 -0.000000
806
root 4.266202 34.329510 -4.158262 16.776904 -26.344166 -42.487220
Spine 13.829677 19.587662 35.848179
Head -0.958442 3.900524 -0.728991
LeftShoulder -20.455241 32.504329 30.420480
LeftArm 51.388926 -74.961476 -57.476660
LeftForeArm 10.040383 0.000000 5.356106
LeftHand 10.644229 -0.000000 13.281621
LeftHandThumb1 -26.253704 0.000000 33.147579
RightShoulder 9.067209 24.945590 -25.719016
RightArm 30.396346 54.357918 76.296760
RightForeArm 64.601529 -0.000000 24.694634
RightHand 11.638078 -0.000000 -18.220101
RightHandThumb1 -24.326973 -0.000000 -32.862282
LeftUpLeg -3.956455 -4.340643 30.970118
LeftLeg 22.202693 -0.000000 -0.000000
LeftFoot -9.927192 26.628183 -11.289179
LeftToeBase -21.946525 -0.000000 0.000000
RightUpLeg -91.646293 -50.697231 -9.387438
RightLeg 10.741644 -0.000000 -0.000000
RightFoot 41.786899 -15.159619 -2.178846
RightToeBase 20.804032 -0.000000 -0.000000
807
root 4.321608 34.337788 -4.145936 16.934625 -26.351084 -42.260823
Spine 13.780324 19.823112 35.739727
Head -1.267688 3.815070 -0.843438
LeftShoulder -20.460164 32.635848 30.390158
LeftArm 51.673703 -74.407135 -57.726230
LeftForeArm 9.988945 -0.000000 5.142086
LeftHand 10.623601 -0.000000 12.704820
LeftHandThumb1 -26.253704 0.000000 33.147579
RightShoulder 9.213959 24.878219 -25.705038
RightArm 30.632504 54.008522 77.094775
RightForeArm 63.051543 0.000000 25.084685
RightHand 11.923740 -0.000000 -18.186339
RightHandThumb1 -24.326973 -0.000000 -32.862282
LeftUpLeg -4.168356 -4.467850 30.688091
LeftLeg 22.035048 -0.000000 -0.000000
LeftFoot -9.536239 26.743230 -10.966566
LeftToeBase -22.223626 -0.000000 0.000000
RightUpLeg -90.257657 -50.503002 -10.058009
RightLeg 11.038203 -0.000000 -0.000000
RightFoot 41.827734 -15.179210 -2.248688
RightToeBase 21.006958 -0.000000 -0.000000
808
root 4.377710 34.345379 -4.134714 17.028768 -26.330817 -41.993385
Spine 13.787615 20.036747 35.601398
Head -1.639369 3.680468 -0.885982
LeftShoulder -20.452614 32.718636 30.409765
LeftArm 51.709037 -73.862360 -57.775402
LeftForeArm 9.890651 -0.000000 4.975973
LeftHand 10.544282 0.000000 12.289155
LeftHandThumb1 -26.253704 0.000000 33.147579
RightShoulder 9.308539 24.878691 -25.700704
RightArm 30.622832 53.562117 77.458089
RightForeArm 62.095313 -0.000000 25.352820
RightHand 12.147981 -0.000000 -18.654995
RightHandThumb1 -24.326973 -0.000000 -32.862282
LeftUpLeg -4.361320 -4.597631 30.381847
LeftLeg 21.851305 -0.000000 -0.000000
LeftFoot -9.121999 26.817663 -10.623240
LeftToeBase -22.515600 -0.000000 0.000000
RightUpLeg -88.808074 -50.316126 -10.772031
RightLeg 11.279162 -0.000000 -0.000000
RightFoot 41.903648 -15.093361 -2.305121
RightToeBase 21.127196 -0.000000 -0.000000
809
root 4.433043 34.353392 -4.125148 17.159727 -26.309634 -41.742252
Spine 13.787480 20.316141 35.458725
Head -2.055666 3.461045 -0.870541
LeftShoulder -20.486687 32.783542 30.398630
LeftArm 52.171740 -73.420123 -58.174207
LeftForeArm 9.931906 -0.000000 4.734594
LeftHand 10.600893 0.000000 12.028879
LeftHandThumb1 -26.253704 0.000000 33.147579
RightShoulder 9.375808 24.907546 -25.653796
RightArm 30.398507 52.989466 77.385820
RightForeArm 61.597983 -0.000000 25.430037
RightHand 12.467059 -0.000000 -19.222923
RightHandThumb1 -24.326973 -0.000000 -32.862282
LeftUpLeg -4.567846 -4.659642 30.108944
LeftLeg 21.651970 -0.000000 -0.000000
LeftFoot -8.691580 26.818512 -10.238729
LeftToeBase -22.787249 -0.000000 0.000000
RightUpLeg -87.469479 -50.104484 -11.336171
RightLeg 11.463487 -0.000000 -0.000000
RightFoot 41.996092 -14.963761 -2.301441
RightToeBase 21.184691 -0.000000 -0.000000
810
root 4.486682 34.361343 -4.115396 17.268716 -26.271356 -41.444931
Spine 13.752518 20.577673 35.259357
Head -2.422277 3.248636 -0.747235
LeftShoulder -20.448803 32.797305 30.451535
LeftArm 51.765079 -72.914427 -57.715564
LeftForeArm 9.776948 -0.000000 4.524725
LeftHand 10.543170 -0.000000 11.887944
LeftHandThumb1 -26.253704 0.000000 33.147579
RightShoulder 9.403104 24.846246 -25.620138
RightArm 30.278259 52.452135 77.359699
RightForeArm 61.111525 -0.000000 25.603253
RightHand 12.361411 -0.000000 -19.387348
RightHandThumb1 -24.326973 -0.000000 -32.862282
LeftUpLeg -4.766242 -4.727241 29.805419
LeftLeg 21.410739 -0.000000 -0.000000
LeftFoot -8.314327 26.788313 -9.916974
LeftToeBase -22.475919 -0.000000 0.000000
RightUpLeg -86.132128 -49.902741 -11.896289
RightLeg 11.571791 -0.000000 -0.000000
RightFoot 42.091861 -14.826300 -2.283983
RightToeBase 21.153134 -0.000000 -0.000000
811
root 4.539445 34.371795 -4.106105 17.420769 -26.225374 -41.209973
Spine 13.692797 20.825785 35.110913
Head -2.675713 3.055508 -0.655523
LeftShoulder -20.448739 32.916667 30.418113
LeftArm 51.928392 -72.628158 -57.788440
LeftForeArm 9.806239 -0.000000 4.281977
LeftHand 10.510315 -0.000000 11.704195
LeftHandThumb1 -26.253704 0.000000 33.147579
RightShoulder 9.410208 24.717774 -25.589034
RightArm 30.238046 51.780799 77.239504
RightForeArm 60.821934 -0.000000 25.646163
RightHand 12.506353 -0.000000 -18.989920
RightHandThumb1 -24.326973 -0.000000 -32.862282
LeftUpLeg -4.955383 -4.676236 29.556357
LeftLeg 21.121290 -0.000000 -0.000000
LeftFoot -7.836979 26.754841 -9.392021
LeftToeBase -22.630508 -0.000000 0.000000
RightUpLeg -84.761536 -49.663080 -12.398795
RightLeg 11.581209 -0.000000 -0.000000
RightFoot 42.160265 -14.721181 -2.259460
RightToeBase 21.046684 -0.000000 -0.000000
812
root 4.593744 34.381158 -4.095332 17.537951 -26.165633 -40.920999
Spine 13.621631 21.025934 34.906145
Head -2.917804 2.851629 -0.507561
LeftShoulder -20.420720 33.010007 30.393654
LeftArm 51.744779 -72.384590 -57.518807
LeftForeArm 9.748688 0.000000 4.036093
LeftHand 10.528307 -0.000000 11.598537
LeftHandThumb1 -26.253704 0.000000 33.147579
RightShoulder 9.413207 24.593717 -25.571515
RightArm 30.232379 51.217233 77.137301
RightForeArm 60.521232 -0.000000 25.723012
RightHand 12.266659 0.000000 -18.708323
RightHandThumb1 -24.326973 -0.000000 -32.862282
LeftUpLeg -5.133534 -4.648624 29.251344
LeftLeg 20.789489 -0.000000 -0.000000
LeftFoot -7.381151 26.785519 -8.891240
LeftToeBase -22.643140 -0.000000 0.000000
RightUpLeg -83.414028 -49.437507 -12.888778
RightLeg 11.571169 -0.000000 -0.000000
RightFoot 42.197158 -14.614054 -2.200486
RightToeBase 20.736614 -0.000000 -0.000000
813
root 4.648213 34.390914 -4.082756 17.652977 -26.088576 -40.620275
Spine 13.528246 21.206835 34.695844
Head -3.124336 2.626014 -0.417326
LeftShoulder -20.384029 33.057603 30.362438
LeftArm 51.600160 -72.247526 -57.293118
LeftForeArm 9.792778 -0.000000 3.780307
LeftHand 10.559505 -0.000000 11.490092
LeftHandThumb1 -26.253704 0.000000 33.147579
RightShoulder 9.338791 24.510680 -25.610471
RightArm 30.235285 50.627551 77.099822
RightForeArm 60.268794 -0.000000 25.782813
RightHand 12.370023 0.000000 -18.270657
RightHandThumb1 -24.326973 -0.000000 -32.862282
LeftUpLeg -5.303474 -4.642555 28.938553
LeftLeg 20.407726 -0.000000 -0.000000
LeftFoot -6.911101 26.845247 -8.395428
LeftToeBase -22.726520 -0.000000 0.000000
RightUpLeg -82.040864 -49.203089 -13.401344
RightLeg 11.542433 -0.000000 -0.000000
RightFoot 42.138178 -14.562843 -2.191978
RightToeBase 20.820477 -0.000000 -0.000000
